<?xml version="1.0" standalone="no"?>
<!DOCTYPE svg PUBLIC "-//W3C//DTD SVG 20010904//EN"
 "http://www.w3.org/TR/2001/REC-SVG-20010904/DTD/svg10.dtd">
<svg version="1.0" xmlns="http://www.w3.org/2000/svg"
 width="575.000000pt" height="575.000000pt" viewBox="0 0 575.000000 575.000000"
 preserveAspectRatio="xMidYMid meet">
<metadata>
Created by potrace 1.11, written by Peter Selinger 2001-2013
</metadata>
<g transform="translate(0.000000,575.000000) scale(0.100000,-0.100000)"
fill="#000000" stroke="none">
<path d="M2699 5366 c-2 -2 -36 -6 -74 -10 -39 -4 -81 -8 -95 -11 -14 -2 -65
-11 -115 -19 -85 -15 -316 -76 -360 -95 -11 -5 -58 -24 -105 -41 -204 -78
-444 -218 -635 -370 -199 -158 -436 -428 -569 -648 -166 -275 -290 -608 -331
-892 -4 -24 -8 -47 -11 -51 -24 -39 -24 -668 0 -708 2 -3 7 -31 11 -61 8 -71
47 -236 81 -342 89 -282 246 -576 434 -813 156 -197 436 -444 643 -567 117
-70 148 -88 153 -88 3 0 46 -20 97 -44 238 -114 505 -189 797 -223 86 -10 425
-10 520 0 404 44 799 188 1132 413 79 53 145 99 148 103 3 3 28 24 55 45 94
74 310 301 396 416 48 63 113 158 144 210 62 100 170 321 199 405 10 28 21 59
26 70 39 91 89 301 115 480 4 22 9 51 11 65 3 14 7 120 9 235 3 196 0 245 -30
465 -18 129 -80 349 -147 515 -71 177 -228 456 -321 571 -181 222 -283 325
-491 491 -71 57 -254 169 -381 233 -247 125 -542 218 -776 245 -25 3 -56 8
-70 11 -26 6 -454 15 -460 10z"/>
</g>
</svg>
