
		<svg xmlns="http://www.w3.org/2000/svg" xmlns:xlink="http://www.w3.org/1999/xlink" version="1.1" width="3166.2049861495843" height="2418.2825484764544">
			
			<g transform="scale(8.310249307479225) translate(10, 10)">
				<defs id="SvgjsDefs3454"/><g id="main_text" rel="mainfill" name="main_text" feature="main_text" xmlns:name="mainText_mainfill" groupName="main_text" fill="#009bdb" transform="translate(-5.911094688495624, 103.07346832397555) scale(5.819672511629391)"><path d="M10.547 19.619175 l1.1523 0.61523 q-0.556640625 1.123046875 -1.30859375 1.806640625 t-1.6895 1.04 t-2.1191 0.35645 q-2.6171875 0 -4.091796875 -1.713867188 t-1.4746 -3.8721 q0 -2.041015625 1.25 -3.6328125 q1.58203125 -2.03125 4.248046875 -2.03125 q2.724609375 0 4.365234375 2.080078125 q1.162109375 1.46484375 1.171875 3.65234375 l-9.6191 0 q0.0390625 1.875 1.19140625 3.071289063 t2.8418 1.1963 q0.8203125 0 1.591796875 -0.2880859375 t1.3135 -0.75684 t1.1768 -1.5234 z M10.547 16.738275 q-0.2734375 -1.103515625 -0.80078125 -1.762695313 t-1.3965 -1.0645 t-1.8262 -0.40527 q-1.572265625 0 -2.705078125 1.015625 q-0.8203125 0.7421875 -1.240234375 2.216796875 l7.9688 0 z M14.5996375 19.277375 l0 -1.709 q0.17578125 -2.1875 0.91796875 -3.203125 q0.615234375 -0.927734375 1.611328125 -1.474609375 q0.654296875 -0.419921875 1.865234375 -0.44921875 q0.78125 0 1.58203125 0.29296875 t1.2402 0.78125 t0.88867 1.4648 q0.244140625 -0.625 1.025390625 -1.46484375 q0.380859375 -0.322265625 0.986328125 -0.634765625 q0.41015625 -0.263671875 1.904296875 -0.439453125 q1.11328125 0 2.138671875 0.556640625 t1.4404 1.5674 t0.41504 3.0127 l0 5.8496 l-1.4063 0 l0 -5.8496 q0 -1.71875 -0.244140625 -2.36328125 t-0.83984 -1.04 t-1.4355 -0.39551 q-1.58203125 0.107421875 -2.705078125 1.533203125 q-0.439453125 0.60546875 -0.6640625 2.685546875 l0 5.4297 l-1.377 0 l0 -5.4883 q0 -1.93359375 -0.4296875 -2.631835938 t-1.0254 -1.1133 t-1.4844 -0.41504 q-0.95703125 0 -1.645507813 0.48828125 t-1.0791 1.46 t-0.3125 3.1592 l0 4.541 l-1.3672 0 l0 -4.1504 z M33.48635625 19.277375 l0 -1.709 q0.17578125 -2.1875 0.91796875 -3.203125 q0.615234375 -0.927734375 1.611328125 -1.474609375 q0.654296875 -0.419921875 1.865234375 -0.44921875 q0.78125 0 1.58203125 0.29296875 t1.2402 0.78125 t0.88867 1.4648 q0.244140625 -0.625 1.025390625 -1.46484375 q0.380859375 -0.322265625 0.986328125 -0.634765625 q0.41015625 -0.263671875 1.904296875 -0.439453125 q1.11328125 0 2.138671875 0.556640625 t1.4404 1.5674 t0.41504 3.0127 l0 5.8496 l-1.4063 0 l0 -5.8496 q0 -1.71875 -0.244140625 -2.36328125 t-0.83984 -1.04 t-1.4355 -0.39551 q-1.58203125 0.107421875 -2.705078125 1.533203125 q-0.439453125 0.60546875 -0.6640625 2.685546875 l0 5.4297 l-1.377 0 l0 -5.4883 q0 -1.93359375 -0.4296875 -2.631835938 t-1.0254 -1.1133 t-1.4844 -0.41504 q-0.95703125 0 -1.645507813 0.48828125 t-1.0791 1.46 t-0.3125 3.1592 l0 4.541 l-1.3672 0 l0 -4.1504 z M57.451175 12.187375 q2.470703125 0 4.1015625 1.787109375 q1.50390625 1.630859375 1.50390625 3.876953125 q0.01953125 5.546875 0 5.634765625 l-1.4551 0 l0 -2.4316 q-1.142578125 2.12890625 -4.150390625 2.3828125 q-2.4609375 0 -4.018554688 -1.674804688 t-1.5576 -3.9111 q0 -2.2265625 1.474609375 -3.8671875 q1.630859375 -1.796875 4.1015625 -1.796875 z M57.451175 13.535375 q-1.708984375 0 -2.939453125 1.26953125 t-1.2305 3.0664 q0 1.162109375 0.6298828125 2.236328125 t2.1338 1.8164 q3.76953125 0.83984375 5.361328125 -3.427734375 q0.087890625 -1.3671875 -0.29296875 -2.6171875 q-0.2734375 -0.56640625 -0.751953125 -1.07421875 q-1.201171875 -1.26953125 -2.91015625 -1.26953125 z"/></g><g id="slogan_text" rel="mainfill" name="slogan_text" feature="slogan_text" xmlns:name="sloganText_mainfill" groupName="slogan_text" fill="#009bdb" transform="translate(7.959999752044678, 254.99499981403352) scale(0.65)"><path d="M13 19.42 q0 1 -0.41 1.85 t-1.09 1.46 t-1.57 0.95 t-1.87 0.34 l-6.46 -0.02 l0 -16 l5.76 0 q1.04 0 1.93 0.31 t1.55 0.9 t1.03 1.44 t0.37 1.91 q0 0.9 -0.4 1.74 t-1.06 1.42 q0.52 0.26 0.93 0.66 t0.7 0.89 t0.44 1.04 t0.15 1.11 z M9.18 12.62 q0 -0.58 -0.22 -1 t-0.59 -0.7 t-0.85 -0.42 t-1 -0.14 l-1.82 0 l0 4.4 q0.5 0.02 0.9 0.02 l0.92 0 t1 -0.12 t0.85 -0.38 t0.59 -0.67 t0.22 -0.99 z M9.78 19.240000000000002 q0 -0.5 -0.19 -0.92 t-0.52 -0.71 t-0.76 -0.45 t-0.93 -0.16 q-0.68 -0.02 -1.34 -0.01 t-1.34 0.01 l0 4.42 l2.32 0 q0.5 0 1 -0.12 t0.89 -0.39 t0.63 -0.68 t0.24 -0.99 z M41.2 24 l-10.56 0 l0 -15.98 l10.56 0 l0 2.56 l-7.52 0 l0 3.82 l7.42 0 l0 2.5 l-7.42 0 l0 4.4 l7.52 0 l0 2.7 z M75.17999999999999 24 l-3.4 0 l-1.48 -3.2 l-7.76 0 l-1.5 3.2 l-3.4 0 l7.56 -16 l2.42 0 z M69.08 18.22 l-2.66 -5.76 l-2.7 5.76 l5.36 0 z M106.24000000000001 8 l0 8.68 q0 1.6 -0.48 2.98 t-1.39 2.41 t-2.22 1.62 t-2.99 0.59 q-1.64 0 -2.96 -0.58 t-2.25 -1.59 t-1.43 -2.38 t-0.5 -2.95 l0 -8.78 l3.1 0 l0 8.8 q0 0.92 0.26 1.73 t0.76 1.41 t1.25 0.95 t1.71 0.35 q1.02 0 1.77 -0.33 t1.24 -0.92 t0.74 -1.39 t0.25 -1.76 l0 -8.84 l3.14 0 z M135.26000000000002 10.78 l-4.42 0 l0 13.22 l-3.14 0 l0 -13.22 l-4.42 0 l0 -2.76 l11.98 0 l0 2.76 z M167.24 8.02 l-6.52 9.44 l0 6.56 l-3.14 0 l0 -6.6 l-6.18 -9.4 l3.6 0 l4.16 6.72 l4.34 -6.72 l3.74 0 z  M209.22000000000003 24 l-3.1 0 l0 -15.98 l3.1 0 l0 15.98 z M240.96000000000004 24 l-3.04 0 l-7.22 -11.22 l0 11.22 l-3.04 0 l0 -16 l3.48 0 l6.78 10.44 l0 -10.44 l3.04 0 l0 16 z M270.38 10.78 l-4.42 0 l0 13.22 l-3.14 0 l0 -13.22 l-4.42 0 l0 -2.76 l11.98 0 l0 2.76 z M298.38000000000005 24 l-10.56 0 l0 -15.98 l10.56 0 l0 2.56 l-7.52 0 l0 3.82 l7.42 0 l0 2.5 l-7.42 0 l0 4.4 l7.52 0 l0 2.7 z M327.04 24 l-10.82 0 l0 -15.98 l3.16 0 l0 12.98 l7.66 0 l0 3 z M355.1 24 l-10.82 0 l0 -15.98 l3.16 0 l0 12.98 l7.66 0 l0 3 z M375.44 24 l-3.1 0 l0 -15.98 l3.1 0 l0 15.98 z M408.6 21.06 q-0.68 0.84 -1.48 1.45 t-1.67 1.01 t-1.78 0.59 t-1.81 0.19 q-1.78 0 -3.34 -0.64 t-2.72 -1.76 t-1.84 -2.64 t-0.68 -3.28 q0 -1.72 0.67 -3.23 t1.84 -2.63 t2.73 -1.77 t3.34 -0.65 q2.06 0 3.75 0.84 t2.87 2.24 l-2.1 2.14 q-0.9 -1.22 -2.02 -1.75 t-2.5 -0.53 q-1.14 0 -2.14 0.42 t-1.75 1.15 t-1.18 1.7 t-0.43 2.07 q0 1.12 0.43 2.09 t1.18 1.71 t1.75 1.16 t2.14 0.42 q1.08 0 2.04 -0.4 t1.72 -1.06 l0 -1.54 l-3.28 0 l0 -2.64 l6.26 0 l0 5.34 z M437.00000000000006 24 l-10.56 0 l0 -15.98 l10.56 0 l0 2.56 l-7.52 0 l0 3.82 l7.42 0 l0 2.5 l-7.42 0 l0 4.4 l7.52 0 l0 2.7 z M468.14 24 l-3.04 0 l-7.22 -11.22 l0 11.22 l-3.04 0 l0 -16 l3.48 0 l6.78 10.44 l0 -10.44 l3.04 0 l0 16 z M501.22 21.12 q-1.2 1.46 -2.91 2.32 t-3.77 0.86 q-1.78 0 -3.34 -0.65 t-2.72 -1.77 t-1.83 -2.63 t-0.67 -3.25 t0.67 -3.25 t1.83 -2.64 t2.72 -1.77 t3.34 -0.64 q2.06 0 3.77 0.86 t2.85 2.24 l-2.14 2.2 q-0.74 -1.06 -1.91 -1.71 t-2.57 -0.65 q-1.12 0 -2.11 0.43 t-1.73 1.16 t-1.17 1.7 t-0.43 2.07 q0 1.08 0.43 2.05 t1.17 1.7 t1.73 1.16 t2.11 0.43 q1.48 0 2.62 -0.67 t1.9 -1.77 z M528.8199999999999 24 l-10.56 0 l0 -15.98 l10.56 0 l0 2.56 l-7.52 0 l0 3.82 l7.42 0 l0 2.5 l-7.42 0 l0 4.4 l7.52 0 l0 2.7 z"/></g><g id="SvgjsG3457" rel="mainfill" name="symbol" feature="symbol" xmlns:name="symbol_mainfill" fill="#009bdb" transform="translate(105.12696837775732, 7.126216974427762) scale(1.5007685670542472)"><path xmlns="http://www.w3.org/2000/svg" fill="#009bdb" d="M94.752,50.099c0,11.222,0.008,22.445-0.003,33.667c-0.006,6.335-4.647,10.981-10.962,10.983  c-22.497,0.006-44.995,0.006-67.492,0C9.904,94.748,5.251,90.079,5.25,83.666c-0.005-22.445-0.006-44.89,0.001-67.334  c0-6.387,4.689-11.079,11.066-11.081c22.445-0.006,44.89-0.006,67.334,0c6.432,0.002,11.092,4.628,11.098,11.024  C94.759,27.55,94.752,38.825,94.752,50.099z M49.96,13.112c-10.961,0-21.921-0.005-32.882,0.003  c-3.068,0.002-3.962,0.891-3.963,3.942c-0.005,21.974-0.005,43.947,0,65.921c0.001,3.035,0.905,3.926,3.981,3.927  c21.921,0.005,43.842,0.005,65.763,0c3.182-0.001,4.044-0.859,4.045-4.022c0.005-21.921,0.005-43.842-0.001-65.763  c-0.001-3.142-0.882-4.004-4.064-4.006C71.881,13.108,60.921,13.112,49.96,13.112z"/><path xmlns="http://www.w3.org/2000/svg" d="M50.928,78.683c-7.544-0.225-13.143-3.105-17.273-8.785c-1.191-1.638-0.878-3.754,0.684-4.887  c1.578-1.145,3.666-0.812,4.858,0.855c1.877,2.623,4.305,4.47,7.406,5.368c5.627,1.63,11.45-0.415,14.877-5.182  c1.648-2.292,4.655-2.289,5.965,0.041c0.706,1.256,0.625,2.545-0.214,3.728c-3.068,4.328-7.175,7.149-12.359,8.312  C53.412,78.461,51.899,78.553,50.928,78.683z"/><circle xmlns="http://www.w3.org/2000/svg" fill="#009bdb" cx="38.361" cy="54.04" r="6.099"/><path xmlns="http://www.w3.org/2000/svg" fill="#009bdb" d="M30.606,55.306h-4.902c-0.676,0-1.229-0.553-1.229-1.229v0c0-0.676,0.553-1.229,1.229-1.229h4.902  c0.676,0,1.229,0.553,1.229,1.229v0C31.835,54.753,31.282,55.306,30.606,55.306z"/><path xmlns="http://www.w3.org/2000/svg" fill="#009bdb" d="M30.964,51.32l-4.315-2.327c-0.595-0.321-0.819-1.07-0.498-1.665l0,0c0.321-0.595,1.07-0.819,1.665-0.498  l4.315,2.327c0.595,0.321,0.819,1.07,0.498,1.665v0C32.309,51.417,31.559,51.641,30.964,51.32z"/><path xmlns="http://www.w3.org/2000/svg" fill="#009bdb" d="M33.805,47.46l-2.269-4.346c-0.313-0.599-0.079-1.346,0.521-1.659h0c0.599-0.313,1.346-0.079,1.659,0.521  l2.269,4.346c0.313,0.599,0.079,1.346-0.521,1.659h0C34.864,48.293,34.118,48.059,33.805,47.46z"/><circle xmlns="http://www.w3.org/2000/svg" fill="#009bdb" cx="61.639" cy="54.04" r="6.099"/><path xmlns="http://www.w3.org/2000/svg" fill="#009bdb" d="M69.394,55.306h4.902c0.676,0,1.229-0.553,1.229-1.229v0c0-0.676-0.553-1.229-1.229-1.229h-4.902  c-0.676,0-1.229,0.553-1.229,1.229v0C68.165,54.753,68.718,55.306,69.394,55.306z"/><path xmlns="http://www.w3.org/2000/svg" fill="#009bdb" d="M69.036,51.32l4.315-2.327c0.595-0.321,0.819-1.07,0.498-1.665v0c-0.321-0.595-1.07-0.819-1.665-0.498  l-4.315,2.327c-0.595,0.321-0.819,1.07-0.498,1.665l0,0C67.691,51.417,68.441,51.641,69.036,51.32z"/><path xmlns="http://www.w3.org/2000/svg" fill="#009bdb" d="M66.195,47.46l2.269-4.346c0.313-0.599,0.079-1.346-0.521-1.659l0,0c-0.599-0.313-1.346-0.079-1.659,0.521  l-2.269,4.346c-0.313,0.599-0.079,1.346,0.521,1.659l0,0C65.136,48.293,65.882,48.059,66.195,47.46z"/></g>
			</g>
		</svg>
	