<?xml version="1.0" encoding="utf-8"?>
<!-- Generator: Adobe Illustrator 16.0.0, SVG Export Plug-In . SVG Version: 6.00 Build 0)  -->
<!DOCTYPE svg PUBLIC "-//W3C//DTD SVG 1.1//EN" "http://www.w3.org/Graphics/SVG/1.1/DTD/svg11.dtd">
<svg version="1.1" id="Layer_1" xmlns="http://www.w3.org/2000/svg" xmlns:xlink="http://www.w3.org/1999/xlink" x="0px" y="0px"
	 width="20.001px" height="20px" viewBox="0 0 20.001 20" enable-background="new 0 0 20.001 20" xml:space="preserve">
<path fill="#B72025" d="M17.072,2.931C15.182,1.042,12.673,0,10,0S4.817,1.042,2.927,2.931c-3.646,3.644-3.909,9.464-0.662,13.409
	c-0.448,0.917-0.977,1.528-1.575,1.821c-0.365,0.18-0.57,0.574-0.511,0.976c0.063,0.406,0.373,0.721,0.779,0.783
	c0.222,0.034,0.46,0.055,0.708,0.055l0,0c1.228,0,2.518-0.423,3.595-1.164C6.711,19.589,8.341,20,10,20
	c2.673,0,5.183-1.039,7.072-2.928s2.929-4.401,2.929-7.068S18.962,4.819,17.072,2.931z M16.272,16.269
	c-1.676,1.675-3.905,2.596-6.272,2.596c-1.584,0-3.138-0.423-4.492-1.218c-0.088-0.051-0.188-0.08-0.285-0.08
	c-0.122,0-0.247,0.042-0.348,0.118c-1.282,0.993-2.573,1.139-3.138,1.152c0.674-0.503,1.24-1.282,1.713-2.366
	c0.088-0.201,0.05-0.436-0.096-0.603C0.254,12.366,0.418,7.03,3.727,3.723C5.404,2.047,7.633,1.126,10,1.126
	s4.596,0.921,6.272,2.597C19.733,7.186,19.733,12.813,16.272,16.269z"/>
<path fill="#B72025" d="M14.189,6.7H5.81c-0.314,0-0.565,0.251-0.565,0.566c0,0.313,0.251,0.565,0.565,0.565h8.379
	c0.314,0,0.566-0.251,0.566-0.565C14.755,6.951,14.5,6.7,14.189,6.7z"/>
<path fill="#B72025" d="M14.189,9.435H5.81c-0.314,0-0.565,0.251-0.565,0.565s0.251,0.565,0.565,0.565h8.379
	c0.314,0,0.566-0.251,0.566-0.565S14.5,9.435,14.189,9.435z"/>
<path fill="#B72025" d="M14.189,12.169H5.81c-0.314,0-0.565,0.251-0.565,0.565c0,0.313,0.251,0.565,0.565,0.565h8.379
	c0.314,0,0.566-0.252,0.566-0.565C14.755,12.42,14.5,12.169,14.189,12.169z"/>
</svg>
