<?xml version="1.0" encoding="utf-8"?>
<!-- Generator: Adobe Illustrator 16.0.0, SVG Export Plug-In . SVG Version: 6.00 Build 0)  -->
<!DOCTYPE svg PUBLIC "-//W3C//DTD SVG 1.1//EN" "http://www.w3.org/Graphics/SVG/1.1/DTD/svg11.dtd">
<svg version="1.1" id="Layer_1" xmlns="http://www.w3.org/2000/svg" xmlns:xlink="http://www.w3.org/1999/xlink" x="0px" y="0px"
	 width="18px" height="24.996px" viewBox="0 0 18 24.996" enable-background="new 0 0 18 24.996" xml:space="preserve">
<path fill="#B72025" d="M17.743,1.311c-0.188-0.077-4.647-1.854-8.117,0.019C6.877,2.816,2.052,1.7,0.818,1.378V0.417
	C0.818,0.186,0.635,0,0.409,0C0.183,0,0,0.186,0,0.417v1.25c0,0.006,0.003,0.011,0.003,0.017C0.003,1.688,0,1.692,0,1.697v12.051
	v0.448V24.58c0,0.23,0.183,0.416,0.409,0.416c0.226,0,0.409-0.186,0.409-0.416v-9.843c0.93,0.236,2.957,0.68,5.06,0.68
	c1.455,0,2.945-0.213,4.132-0.854c3.13-1.692,7.387,0.002,7.429,0.019c0.126,0.052,0.269,0.036,0.381-0.043
	c0.112-0.077,0.18-0.206,0.18-0.344V1.697C18,1.527,17.898,1.374,17.743,1.311z M17.182,13.609c-1.333-0.433-4.764-1.29-7.556,0.219
	c-2.749,1.486-7.572,0.372-8.808,0.049v-0.128V2.239c1.577,0.4,6.292,1.393,9.192-0.174c2.687-1.451,6.201-0.41,7.172-0.075V13.609z
	"/>
</svg>
