<?xml version="1.0" encoding="utf-8"?>
<!-- Generator: Adobe Illustrator 16.0.0, SVG Export Plug-In . SVG Version: 6.00 Build 0)  -->
<!DOCTYPE svg PUBLIC "-//W3C//DTD SVG 1.1//EN" "http://www.w3.org/Graphics/SVG/1.1/DTD/svg11.dtd">
<svg version="1.1" id="Layer_1" xmlns="http://www.w3.org/2000/svg" xmlns:xlink="http://www.w3.org/1999/xlink" x="0px" y="0px"
	 width="19px" height="16px" viewBox="0 0 19 16" enable-background="new 0 0 19 16" xml:space="preserve">
<path fill="#B72025" d="M17.465,1.485c-0.995-0.953-2.312-1.474-3.718-1.474c-1.405,0-2.727,0.524-3.722,1.478l-0.52,0.498
	L8.979,1.481C7.983,0.528,6.658,0,5.252,0C3.851,0,2.53,0.525,1.539,1.474C0.544,2.427-0.004,3.692,0,5.039
	C0,6.385,0.552,7.647,1.547,8.6l7.564,7.246C9.216,15.946,9.357,16,9.494,16c0.137,0,0.277-0.05,0.382-0.15l7.581-7.234
	C18.452,7.662,19,6.397,19,5.051C19.004,3.704,18.46,2.438,17.465,1.485z M16.691,7.878l-7.197,6.868L2.313,7.867
	c-0.79-0.757-1.225-1.76-1.225-2.829s0.431-2.072,1.22-2.824c0.786-0.752,1.833-1.169,2.944-1.169c1.116,0,2.167,0.417,2.957,1.173
	l0.91,0.872c0.214,0.204,0.556,0.204,0.77,0l0.902-0.864c0.789-0.757,1.841-1.173,2.952-1.173c1.112,0,2.159,0.417,2.948,1.169
	c0.79,0.756,1.221,1.759,1.221,2.829C17.916,6.119,17.481,7.122,16.691,7.878z"/>
</svg>
