<?xml version="1.0" encoding="utf-8"?>
<!-- Generator: Adobe Illustrator 16.0.0, SVG Export Plug-In . SVG Version: 6.00 Build 0)  -->
<!DOCTYPE svg PUBLIC "-//W3C//DTD SVG 1.1//EN" "http://www.w3.org/Graphics/SVG/1.1/DTD/svg11.dtd">
<svg version="1.1" id="Layer_1" xmlns="http://www.w3.org/2000/svg" xmlns:xlink="http://www.w3.org/1999/xlink" x="0px" y="0px"
	 width="40px" height="30px" viewBox="0 0 40 30" enable-background="new 0 0 40 30" xml:space="preserve">
<path fill="#DCDBDB" d="M11.045,1.765c0,0.971,0.806,1.765,1.791,1.765h25.373C39.194,3.53,40,2.736,40,1.765
	C40,0.795,39.194,0,38.209,0H12.836C11.851,0,11.045,0.795,11.045,1.765z"/>
<path fill="#DCDBDB" d="M12.836,16.765h25.373C39.194,16.765,40,15.971,40,15c0-0.971-0.806-1.765-1.791-1.765H12.836
	c-0.985,0-1.791,0.794-1.791,1.765C11.045,15.971,11.851,16.765,12.836,16.765z"/>
<path fill="#DCDBDB" d="M12.836,30h25.373C39.194,30,40,29.206,40,28.236c0-0.971-0.806-1.765-1.791-1.765H12.836
	c-0.985,0-1.791,0.794-1.791,1.765C11.045,29.206,11.851,30,12.836,30z"/>
<path fill="#DCDBDB" d="M1.791,3.53h2.985c0.985,0,1.791-0.794,1.791-1.765C6.567,0.795,5.761,0,4.776,0H1.791
	C0.806,0,0,0.795,0,1.765C0,2.736,0.806,3.53,1.791,3.53z"/>
<path fill="#DCDBDB" d="M1.791,16.765h2.985c0.985,0,1.791-0.794,1.791-1.764c0-0.971-0.806-1.765-1.791-1.765H1.791
	C0.806,13.235,0,14.03,0,15C0,15.971,0.806,16.765,1.791,16.765z"/>
<path fill="#DCDBDB" d="M1.791,30h2.985c0.985,0,1.791-0.794,1.791-1.764c0-0.971-0.806-1.765-1.791-1.765H1.791
	C0.806,26.471,0,27.265,0,28.236C0,29.206,0.806,30,1.791,30z"/>
</svg>
