<?xml version="1.0" encoding="utf-8"?>
<!-- Generator: Adobe Illustrator 16.0.0, SVG Export Plug-In . SVG Version: 6.00 Build 0)  -->
<!DOCTYPE svg PUBLIC "-//W3C//DTD SVG 1.1//EN" "http://www.w3.org/Graphics/SVG/1.1/DTD/svg11.dtd">
<svg version="1.1" id="Layer_1" xmlns="http://www.w3.org/2000/svg" xmlns:xlink="http://www.w3.org/1999/xlink" x="0px" y="0px"
	 width="23px" height="18px" viewBox="0 0 23 18" enable-background="new 0 0 23 18" xml:space="preserve">
<path fill="#B72025" d="M20.192,0H2.813C1.261,0,0,1.297,0,2.892v12.215C0,16.703,1.261,18,2.813,18h17.375
	C21.738,18,23,16.703,23,15.108V2.897C23.004,1.302,21.743,0,20.192,0z M21.72,15.108c0,0.866-0.686,1.571-1.528,1.571H2.813
	c-0.842,0-1.528-0.705-1.528-1.571V2.897c0-0.866,0.686-1.571,1.528-1.571h17.375c0.842,0,1.528,0.705,1.528,1.571v12.21H21.72z"/>
<path fill="#B72025" d="M14.505,8.848l5.625-5.188C20.392,3.416,20.416,3,20.178,2.726c-0.238-0.269-0.643-0.293-0.909-0.049
	l-7.757,7.16l-1.513-1.39c-0.005-0.005-0.01-0.01-0.01-0.014C9.956,8.398,9.922,8.368,9.884,8.339L3.726,2.672
	C3.46,2.427,3.055,2.452,2.817,2.726C2.579,3,2.603,3.416,2.87,3.661l5.691,5.232l-5.667,5.457c-0.257,0.25-0.271,0.666-0.029,0.935
	c0.128,0.137,0.3,0.21,0.471,0.21c0.157,0,0.314-0.059,0.438-0.176l5.754-5.535l1.561,1.434c0.124,0.113,0.276,0.167,0.429,0.167
	s0.309-0.059,0.428-0.171l1.604-1.478l5.72,5.589c0.124,0.123,0.286,0.181,0.443,0.181c0.171,0,0.337-0.069,0.466-0.206
	c0.243-0.264,0.233-0.685-0.024-0.935L14.505,8.848z"/>
</svg>
