<?xml version="1.0" encoding="utf-8"?>
<!-- Generator: Adobe Illustrator 16.0.0, SVG Export Plug-In . SVG Version: 6.00 Build 0)  -->
<!DOCTYPE svg PUBLIC "-//W3C//DTD SVG 1.1//EN" "http://www.w3.org/Graphics/SVG/1.1/DTD/svg11.dtd">
<svg version="1.1" id="Layer_1" xmlns="http://www.w3.org/2000/svg" xmlns:xlink="http://www.w3.org/1999/xlink" x="0px" y="0px"
	 width="20px" height="21px" viewBox="0 0 20 21" enable-background="new 0 0 20 21" xml:space="preserve">
<path fill="#B72025" d="M16.891,4.304H16.35V3.103C16.35,1.393,14.954,0,13.24,0H6.712c-1.714,0-3.11,1.393-3.11,3.103v1.201H3.109
	C1.396,4.304,0,5.697,0,7.408v5.005c0,1.711,1.396,3.104,3.109,3.104h0.488v3.935C3.598,20.304,4.296,21,5.15,21h9.643
	c0.854,0,1.552-0.696,1.552-1.549v-3.935h0.545c1.714,0,3.109-1.393,3.109-3.104V7.408C20,5.697,18.604,4.304,16.891,4.304z
	 M4.775,3.103c0-1.062,0.868-1.928,1.932-1.928h6.524c1.064,0,1.932,0.866,1.932,1.928v1.201H4.775V3.103z M15.168,19.459
	c0,0.204-0.17,0.374-0.375,0.374H5.15c-0.205,0-0.375-0.17-0.375-0.374V12.97h10.393V19.459z M18.822,12.417
	c0,1.062-0.868,1.928-1.932,1.928H16.35V12.97h0.776c0.327,0,0.589-0.261,0.589-0.588c0-0.326-0.262-0.588-0.589-0.588H2.734
	c-0.327,0-0.589,0.262-0.589,0.588c0,0.327,0.262,0.588,0.589,0.588h0.868v1.375H3.109c-1.064,0-1.932-0.866-1.932-1.928V7.412
	c0-1.062,0.868-1.928,1.932-1.928h13.781c1.064,0,1.932,0.866,1.932,1.928V12.417z"/>
<path fill="#B72025" d="M6.201,15.86h7.497c0.327,0,0.589-0.261,0.589-0.587c0-0.327-0.262-0.588-0.589-0.588H6.201
	c-0.327,0-0.588,0.261-0.588,0.588C5.613,15.599,5.879,15.86,6.201,15.86z"/>
<path fill="#B72025" d="M13.746,17.087H6.245c-0.327,0-0.589,0.261-0.589,0.587s0.262,0.587,0.589,0.587h7.497
	c0.327,0,0.589-0.261,0.589-0.587S14.069,17.087,13.746,17.087z"/>
<path fill="#B72025" d="M16.877,6.611h-1.195c-0.327,0-0.589,0.261-0.589,0.587s0.262,0.587,0.589,0.587h1.195
	c0.327,0,0.589-0.261,0.589-0.587S17.205,6.611,16.877,6.611z"/>
</svg>
