<?xml version="1.0" encoding="utf-8"?>
<!-- Generator: Adobe Illustrator 16.0.0, SVG Export Plug-In . SVG Version: 6.00 Build 0)  -->
<!DOCTYPE svg PUBLIC "-//W3C//DTD SVG 1.1//EN" "http://www.w3.org/Graphics/SVG/1.1/DTD/svg11.dtd">
<svg version="1.1" id="Layer_1" xmlns="http://www.w3.org/2000/svg" xmlns:xlink="http://www.w3.org/1999/xlink" x="0px" y="0px"
	 width="16px" height="16.005px" viewBox="0 0 16 16.005" enable-background="new 0 0 16 16.005" xml:space="preserve">
<path fill="#B72025" d="M8.399,15.845l7.436-7.44C15.931,8.308,16,8.157,16,8.005c0-0.151-0.069-0.303-0.165-0.399l-7.436-7.44
	c-0.221-0.22-0.579-0.22-0.799,0c-0.11,0.11-0.165,0.248-0.165,0.399c0,0.152,0.055,0.29,0.165,0.399l6.472,6.476H0.564
	C0.248,7.44,0,7.688,0,8.005S0.248,8.57,0.564,8.57h13.508l-6.472,6.476c-0.22,0.221-0.22,0.579,0,0.799
	C7.821,16.065,8.179,16.051,8.399,15.845z"/>
</svg>
