<?xml version="1.0" encoding="utf-8"?>
<!-- Generator: Adobe Illustrator 16.0.0, SVG Export Plug-In . SVG Version: 6.00 Build 0)  -->
<!DOCTYPE svg PUBLIC "-//W3C//DTD SVG 1.1//EN" "http://www.w3.org/Graphics/SVG/1.1/DTD/svg11.dtd">
<svg version="1.1" id="Layer_1" xmlns="http://www.w3.org/2000/svg" xmlns:xlink="http://www.w3.org/1999/xlink" x="0px" y="0px"
	 width="23.44px" height="23.625px" viewBox="0 0 23.44 23.625" enable-background="new 0 0 23.44 23.625" xml:space="preserve">
<path fill="#B72025" d="M18.187,14.873c-0.472-0.49-1.04-0.752-1.643-0.752c-0.598,0-1.171,0.257-1.663,0.748l-1.536,1.529
	c-0.126-0.068-0.253-0.131-0.375-0.194c-0.175-0.088-0.34-0.17-0.481-0.258c-1.439-0.912-2.747-2.102-4.001-3.641
	c-0.608-0.767-1.017-1.412-1.313-2.068C7.575,9.873,7.944,9.494,8.304,9.13C8.44,8.994,8.576,8.854,8.712,8.718
	c1.021-1.02,1.021-2.34,0-3.359L7.385,4.033c-0.151-0.15-0.307-0.306-0.452-0.461C6.641,3.271,6.335,2.96,6.019,2.669
	C5.547,2.203,4.983,1.956,4.39,1.956c-0.593,0-1.167,0.248-1.653,0.713c-0.004,0.005-0.004,0.005-0.009,0.01L1.075,4.344
	C0.453,4.965,0.098,5.722,0.02,6.601c-0.117,1.418,0.301,2.738,0.622,3.602c0.788,2.122,1.964,4.087,3.719,6.194
	c2.129,2.539,4.691,4.543,7.618,5.956c1.118,0.529,2.611,1.156,4.278,1.262c0.102,0.005,0.209,0.01,0.306,0.01
	c1.123,0,2.066-0.403,2.805-1.204c0.005-0.01,0.015-0.014,0.02-0.024c0.252-0.306,0.544-0.583,0.851-0.878
	c0.209-0.199,0.423-0.408,0.632-0.627c0.481-0.5,0.734-1.082,0.734-1.68c0-0.602-0.258-1.179-0.749-1.665L18.187,14.873z
	 M19.928,19.984C19.922,19.984,19.922,19.989,19.928,19.984c-0.19,0.204-0.384,0.388-0.593,0.592
	c-0.316,0.301-0.637,0.617-0.938,0.971c-0.491,0.524-1.069,0.772-1.828,0.772c-0.073,0-0.151,0-0.224-0.005
	c-1.444-0.092-2.786-0.655-3.792-1.136c-2.751-1.33-5.167-3.218-7.175-5.611c-1.658-1.995-2.767-3.84-3.5-5.82
	c-0.452-1.208-0.618-2.15-0.544-3.039C1.381,6.14,1.6,5.669,2.003,5.266L3.661,3.61C3.899,3.388,4.152,3.266,4.4,3.266
	c0.307,0,0.554,0.185,0.71,0.34C5.115,3.61,5.12,3.616,5.125,3.62C5.421,3.897,5.703,4.184,6,4.489C6.15,4.645,6.306,4.8,6.461,4.96
	l1.327,1.325c0.515,0.515,0.515,0.991,0,1.505C7.647,7.931,7.511,8.072,7.371,8.208C6.962,8.625,6.573,9.014,6.15,9.393
	C6.141,9.402,6.131,9.407,6.126,9.417c-0.418,0.417-0.34,0.826-0.253,1.102c0.005,0.015,0.01,0.029,0.015,0.043
	c0.345,0.835,0.832,1.622,1.57,2.558l0.005,0.005c1.342,1.65,2.756,2.937,4.317,3.922c0.199,0.126,0.403,0.228,0.598,0.325
	c0.175,0.087,0.341,0.17,0.481,0.257c0.02,0.01,0.039,0.024,0.059,0.034c0.165,0.082,0.321,0.121,0.481,0.121
	c0.403,0,0.656-0.252,0.739-0.335l1.663-1.66c0.165-0.165,0.428-0.364,0.734-0.364c0.302,0,0.549,0.189,0.7,0.354
	c0.005,0.005,0.005,0.005,0.01,0.01l2.678,2.675C20.423,18.96,20.423,19.47,19.928,19.984z"/>
<path fill="#B72025" d="M12.431,6.096c1.274,0.213,2.431,0.816,3.354,1.738c0.924,0.922,1.521,2.077,1.74,3.35
	c0.054,0.32,0.331,0.543,0.646,0.543c0.039,0,0.073-0.005,0.112-0.009c0.36-0.059,0.598-0.398,0.54-0.758
	c-0.263-1.539-0.992-2.941-2.105-4.053s-2.519-1.839-4.06-2.102c-0.36-0.058-0.695,0.18-0.758,0.534S12.071,6.038,12.431,6.096z"/>
<path fill="#B72025" d="M22.99,10.771c-0.433-2.533-1.628-4.839-3.466-6.674c-1.837-1.834-4.146-3.029-6.685-3.461
	c-0.354-0.063-0.69,0.18-0.753,0.534c-0.058,0.359,0.18,0.694,0.54,0.757c2.266,0.383,4.332,1.457,5.975,3.092
	c1.643,1.641,2.712,3.704,3.096,5.966c0.054,0.32,0.331,0.544,0.647,0.544c0.039,0,0.073-0.005,0.112-0.01
	C22.811,11.465,23.054,11.125,22.99,10.771z"/>
</svg>
