<?xml version="1.0" encoding="utf-8"?>
<!-- Generator: Adobe Illustrator 16.0.0, SVG Export Plug-In . SVG Version: 6.00 Build 0)  -->
<!DOCTYPE svg PUBLIC "-//W3C//DTD SVG 1.1//EN" "http://www.w3.org/Graphics/SVG/1.1/DTD/svg11.dtd">
<svg version="1.1" id="Layer_1" xmlns="http://www.w3.org/2000/svg" xmlns:xlink="http://www.w3.org/1999/xlink" x="0px" y="0px"
	 width="33.333px" height="33.167px" viewBox="0 0 33.333 33.167" enable-background="new 0 0 33.333 33.167" xml:space="preserve">
<path fill="#BF2126" d="M14,1.752C14,1.008,13.4,0.4,12.667,0.4H2c-0.733,0-1.333,0.608-1.333,1.353v10.817
	c0,0.744,0.6,1.352,1.333,1.352h10.667c0.733,0,1.333-0.608,1.333-1.352V1.752z M3.333,3.104h8v8.113h-8V3.104z"/>
<path fill="#BF2126" d="M32.667,1.752c0-0.744-0.6-1.353-1.333-1.353H20.667c-0.733,0-1.333,0.608-1.333,1.353v10.817
	c0,0.744,0.6,1.352,1.333,1.352h10.667c0.733,0,1.333-0.608,1.333-1.352V1.752z M22,3.104h8v8.113h-8V3.104z"/>
<path fill="#BF2126" d="M14,20.231c0-0.743-0.6-1.352-1.333-1.352H2c-0.733,0-1.333,0.608-1.333,1.352v10.817
	c0,0.743,0.6,1.352,1.333,1.352h10.667C13.4,32.4,14,31.792,14,31.048V20.231z M3.333,21.583h8v8.112h-8V21.583z"/>
<path fill="#BF2126" d="M32.667,20.231c0-0.743-0.6-1.352-1.333-1.352H20.667c-0.733,0-1.333,0.608-1.333,1.352v10.817
	c0,0.743,0.6,1.352,1.333,1.352h10.667c0.733,0,1.333-0.609,1.333-1.352V20.231z M22,21.583h8v8.112h-8V21.583z"/>
</svg>
