<?xml version="1.0" encoding="utf-8"?>
<!-- Generator: Adobe Illustrator 16.0.0, SVG Export Plug-In . SVG Version: 6.00 Build 0)  -->
<!DOCTYPE svg PUBLIC "-//W3C//DTD SVG 1.1//EN" "http://www.w3.org/Graphics/SVG/1.1/DTD/svg11.dtd">
<svg version="1.1" id="Layer_1" xmlns="http://www.w3.org/2000/svg" xmlns:xlink="http://www.w3.org/1999/xlink" x="0px" y="0px"
	 width="25px" height="25px" viewBox="0 0 25 25" enable-background="new 0 0 25 25" xml:space="preserve">
<path fill="#242424" d="M12.5,0C5.607,0,0,5.607,0,12.5S5.607,25,12.5,25c3.246,0,6.322-1.238,8.662-3.488
	c0.203-0.195,0.209-0.517,0.014-0.719s-0.517-0.209-0.719-0.014c-2.149,2.066-4.975,3.204-7.957,3.204
	c-6.332,0-11.482-5.15-11.482-11.482c0-6.331,5.151-11.482,11.482-11.482c6.331,0,11.482,5.151,11.482,11.482
	c0,1.428-0.259,2.821-0.769,4.141c-0.102,0.262,0.029,0.557,0.291,0.658c0.263,0.102,0.557-0.028,0.658-0.291
	C24.718,15.571,25,14.054,25,12.5C25,5.607,19.393,0,12.5,0z"/>
<path fill="#242424" d="M14.212,13.578c-0.201-0.196-0.523-0.193-0.719,0.008c-0.197,0.201-0.193,0.522,0.007,0.719l4.005,3.92
	c0.099,0.097,0.228,0.146,0.356,0.146c0.132,0,0.264-0.052,0.363-0.153c0.197-0.201,0.193-0.522-0.007-0.719L14.212,13.578z"/>
<path fill="#242424" d="M10.614,11.334c0.099,0.099,0.229,0.148,0.36,0.148s0.261-0.05,0.36-0.148c0.199-0.199,0.199-0.521,0-0.72
	L7.498,6.778c-0.199-0.198-0.521-0.198-0.72,0c-0.199,0.199-0.199,0.521,0,0.72L10.614,11.334z"/>
<path fill="#242424" d="M18.222,6.778c-0.199-0.198-0.521-0.198-0.72,0L6.778,17.502c-0.199,0.199-0.199,0.521,0,0.719
	c0.099,0.1,0.229,0.149,0.359,0.149c0.131,0,0.261-0.05,0.36-0.149L18.222,7.498C18.42,7.3,18.42,6.978,18.222,6.778z"/>
</svg>
