<?xml version="1.0" encoding="utf-8"?>
<!-- Generator: Adobe Illustrator 16.0.0, SVG Export Plug-In . SVG Version: 6.00 Build 0)  -->
<!DOCTYPE svg PUBLIC "-//W3C//DTD SVG 1.1//EN" "http://www.w3.org/Graphics/SVG/1.1/DTD/svg11.dtd">
<svg version="1.1" id="Layer_1" xmlns="http://www.w3.org/2000/svg" xmlns:xlink="http://www.w3.org/1999/xlink" x="0px" y="0px"
	 width="11.741px" height="11.741px" viewBox="0 0 11.741 11.741" enable-background="new 0 0 11.741 11.741" xml:space="preserve">
<path fill="#FFFFFF" d="M7.583,6.948C7.382,6.752,7.06,6.756,6.864,6.956c-0.196,0.201-0.193,0.523,0.008,0.72l4.005,3.92
	c0.099,0.097,0.228,0.146,0.355,0.146c0.132,0,0.264-0.051,0.364-0.153c0.197-0.201,0.193-0.523-0.007-0.72L7.583,6.948z"/>
<path fill="#FFFFFF" d="M3.985,4.704c0.099,0.099,0.229,0.149,0.36,0.149c0.13,0,0.26-0.05,0.359-0.149
	c0.199-0.199,0.199-0.521,0-0.719L0.868,0.149c-0.199-0.199-0.521-0.199-0.719,0c-0.199,0.198-0.199,0.52,0,0.719L3.985,4.704z"/>
<path fill="#FFFFFF" d="M11.592,0.149c-0.199-0.199-0.521-0.199-0.719,0L0.149,10.873c-0.199,0.198-0.199,0.52,0,0.719
	c0.099,0.099,0.229,0.149,0.359,0.149c0.13,0,0.261-0.05,0.36-0.149L11.592,0.869C11.791,0.67,11.791,0.348,11.592,0.149z"/>
</svg>
