<?xml version="1.0" encoding="utf-8"?>
<!-- Generator: Adobe Illustrator 16.0.0, SVG Export Plug-In . SVG Version: 6.00 Build 0)  -->
<!DOCTYPE svg PUBLIC "-//W3C//DTD SVG 1.1//EN" "http://www.w3.org/Graphics/SVG/1.1/DTD/svg11.dtd">
<svg version="1.1" id="Layer_1" xmlns="http://www.w3.org/2000/svg" xmlns:xlink="http://www.w3.org/1999/xlink" x="0px" y="0px"
	 width="25px" height="25px" viewBox="0 0 25 25" enable-background="new 0 0 25 25" xml:space="preserve">
<path fill="#FFFFFF" d="M12.5,0C5.607,0,0,5.607,0,12.5C0,19.393,5.607,25,12.5,25c3.246,0,6.322-1.239,8.662-3.488
	c0.202-0.194,0.208-0.517,0.014-0.719c-0.195-0.203-0.517-0.209-0.719-0.014c-2.149,2.066-4.975,3.204-7.957,3.204
	c-6.332,0-11.483-5.151-11.483-11.482S6.168,1.018,12.5,1.018c6.331,0,11.482,5.151,11.482,11.482c0,1.428-0.259,2.821-0.769,4.141
	c-0.102,0.262,0.029,0.556,0.291,0.658c0.262,0.101,0.557-0.029,0.658-0.291C24.718,15.571,25,14.054,25,12.5
	C25,5.607,19.392,0,12.5,0z"/>
</svg>
